HIERARCHY
ROOT Hips
{
	OFFSET 0.000000 0.000000 0.000000
	CHANNELS 6 Xposition Yposition Zposition Xrotation Yrotation Zrotation
	JOINT LeftUpLeg_virtual
	{
		OFFSET 0.000000 0.000000 0.000000
		CHANNELS 3 Xrotation Yrotation Zrotation
		JOINT LeftUpLeg
		{
			OFFSET 10.205400 -3.823500 0.155100
			CHANNELS 3 Xrotation Yrotation Zrotation
			JOINT LeftLeg
			{
				OFFSET 0.708757 -12.982077 0.567790
				CHANNELS 3 Xrotation Yrotation Zrotation
				JOINT LeftFoot
				{
					OFFSET -0.708756 -10.717838 -2.184338
					CHANNELS 3 Xrotation Yrotation Zrotation
					JOINT LeftToeBase
					{
						OFFSET 0.108149 -7.191104 7.560241
						CHANNELS 3 Xrotation Yrotation Zrotation
						JOINT LeftToe_End
						{
							OFFSET 0.070230 0.081724 4.490308
							CHANNELS 3 Xrotation Yrotation Zrotation
							End Site
							{
								OFFSET 0 0 0
							}
						}
					}
				}
			}
		}
	}
	JOINT RightUpLeg_virtual
	{
		OFFSET 0.000000 0.000000 0.000000
		CHANNELS 3 Xrotation Yrotation Zrotation
		JOINT RightUpLeg
		{
			OFFSET -10.205400 -3.823500 0.005500
			CHANNELS 3 Xrotation Yrotation Zrotation
			JOINT RightLeg
			{
				OFFSET -0.708756 -12.982134 0.610632
				CHANNELS 3 Xrotation Yrotation Zrotation
				JOINT RightFoot
				{
					OFFSET 0.708754 -10.717769 -1.945823
					CHANNELS 3 Xrotation Yrotation Zrotation
					JOINT RightToeBase
					{
						OFFSET -0.108140 -7.191069 7.372968
						CHANNELS 3 Xrotation Yrotation Zrotation
						JOINT RightToe_End
						{
							OFFSET -0.070227 0.081735 4.479403
							CHANNELS 3 Xrotation Yrotation Zrotation
							End Site
							{
								OFFSET 0 0 0
							}
						}
					}
				}
			}
		}
	}
	JOINT Spine_virtual
	{
		OFFSET 0.000000 0.000000 0.000000
		CHANNELS 3 Xrotation Yrotation Zrotation
		JOINT Spine
		{
			OFFSET 0.000000 6.876099 0.125700
			CHANNELS 3 Xrotation Yrotation Zrotation
			JOINT Spine1
			{
				OFFSET 0.000000 5.730043 0.104720
				CHANNELS 3 Xrotation Yrotation Zrotation
				JOINT Spine1_split
				{
					OFFSET 0.000000 5.730043 0.104720
					CHANNELS 3 Xrotation Yrotation Zrotation
					JOINT Spine2
					{
						OFFSET 0.000000 5.730043 0.104720
						CHANNELS 3 Xrotation Yrotation Zrotation
						JOINT Neck_virtual
						{
							OFFSET 0.000000 0.000000 0.000000
							CHANNELS 3 Xrotation Yrotation Zrotation
							JOINT Neck
							{
								OFFSET 0.000000 10.314075 0.188496
								CHANNELS 3 Xrotation Yrotation Zrotation
								JOINT Head
								{
									OFFSET 0.000000 7.643700 -2.377400
									CHANNELS 3 Xrotation Yrotation Zrotation
									JOINT HeadTop_End
									{
										OFFSET 0.000000 43.788605 -13.619600
										CHANNELS 3 Xrotation Yrotation Zrotation
										End Site
										{
											OFFSET 0 0 0
										}
									}
								}
							}
						}
						JOINT LeftShoulder_virtual
						{
							OFFSET 0.000000 0.000000 0.000000
							CHANNELS 3 Xrotation Yrotation Zrotation
							JOINT LeftShoulder
							{
								OFFSET 2.196100 4.412489 0.087492
								CHANNELS 3 Xrotation Yrotation Zrotation
								JOINT LeftShoulder_split
								{
									OFFSET 2.196100 4.412489 0.087492
									CHANNELS 3 Xrotation Yrotation Zrotation
									JOINT LeftArm
									{
										OFFSET 8.771219 -2.981674 -0.026999
										CHANNELS 3 Xrotation Yrotation Zrotation
										JOINT LeftForeArm
										{
											OFFSET 8.512804 0.000000 -0.000000
											CHANNELS 3 Xrotation Yrotation Zrotation
											JOINT LeftHand
											{
												OFFSET 18.484802 0.000000 -0.000000
												CHANNELS 3 Xrotation Yrotation Zrotation
												End Site
												{
													OFFSET 0 0 0
												}
											}
										}
									}
								}
							}
						}
						JOINT RightShoulder_virtual
						{
							OFFSET 0.000000 0.000000 0.000000
							CHANNELS 3 Xrotation Yrotation Zrotation
							JOINT RightShoulder
							{
								OFFSET -2.196100 4.412496 0.070690
								CHANNELS 3 Xrotation Yrotation Zrotation
								JOINT RightShoulder_split
								{
									OFFSET -2.196100 4.412496 0.070690
									CHANNELS 3 Xrotation Yrotation Zrotation
									JOINT RightArm
									{
										OFFSET -8.771282 -2.981682 -0.094208
										CHANNELS 3 Xrotation Yrotation Zrotation
										JOINT RightForeArm
										{
											OFFSET -8.494598 0.000000 0.000000
											CHANNELS 3 Xrotation Yrotation Zrotation
											JOINT RightHand
											{
												OFFSET -18.483803 0.000000 0.000001
												CHANNELS 3 Xrotation Yrotation Zrotation
												End Site
												{
													OFFSET 0 0 0
												}
											}
										}
									}
								}
							}
						}
					}
				}
			}
		}
	}
}
MOTION
Frames: 10
Frame Time: 0.03333333
-2.289367 31.080467 -0.834974 0.000000 0.000000 0.000000 2.461516 27.832176 1.073177 -44.346892 -22.869237 -0.891937 34.448694 15.381642 -9.407417 8.311943 -3.838488 -5.601622 -2.984922 -1.725334 -0.462242 0.000000 0.000000 0.000000 2.461516 27.832176 1.073177 21.164600 -26.682667 2.093056 20.017398 -7.352835 5.454540 -38.071894 -14.116092 4.454144 -1.306369 -0.028467 0.200614 0.000000 0.000000 0.000000 2.461516 27.832176 1.073177 3.939496 4.783335 -2.066941 0.662379 3.033932 0.848258 0.000000 0.000000 0.000000 0.000000 0.000000 0.000000 0.672737 3.142738 0.838938 -2.710830 10.151291 -6.043547 -8.274084 5.419469 8.279210 0.000000 0.000000 0.000000 0.672737 3.142738 0.838938 -0.170432 1.694767 -1.674861 0.000000 0.000000 0.000000 -70.359172 1.043890 -26.985326 2.443027 -70.793285 3.754327 0.000000 0.000000 0.000000 0.672737 3.142738 0.838938 4.020292 15.450590 6.652457 0.000000 0.000000 0.000000 13.125188 -8.190035 63.320805 15.659587 40.753512 -6.335594 0.000000 0.000000 0.000000 
-2.274885 31.206364 -0.850040 0.000000 0.000000 0.000000 2.948076 25.068362 0.691023 -43.382974 -21.883315 0.971336 35.874059 15.517083 -9.769366 6.330595 -3.206976 -5.938354 -3.078478 -1.876292 -0.501839 0.000000 0.000000 0.000000 2.948076 25.068362 0.691023 18.228701 -24.833314 0.587947 21.681554 -6.728724 5.694018 -38.002025 -13.605671 3.985432 -1.298558 -0.028002 0.181762 0.000000 0.000000 0.000000 2.948076 25.068362 0.691023 4.064523 4.580289 -2.048562 0.745717 2.934846 0.846918 0.000000 0.000000 0.000000 0.000000 0.000000 0.000000 0.756889 3.044790 0.839890 -3.457281 7.577843 -5.438822 -6.770385 3.128976 8.503119 0.000000 0.000000 0.000000 0.756889 3.044790 0.839890 -0.084034 0.806784 -1.884475 0.000000 0.000000 0.000000 -70.540274 1.291836 -27.179157 2.895064 -73.071051 3.786754 0.000000 0.000000 0.000000 0.756889 3.044790 0.839890 4.018027 15.343496 6.386894 0.000000 0.000000 0.000000 12.582814 -8.065728 63.241869 15.851409 41.731974 -6.506813 0.000000 0.000000 0.000000 
-2.253589 31.332413 -0.870274 0.000000 0.000000 0.000000 3.550723 22.146648 0.301799 -42.496908 -21.435254 2.690626 37.300582 15.991865 -10.154132 4.352762 -2.261474 -6.520027 -3.129730 -1.945490 -0.512967 0.000000 0.000000 0.000000 3.550723 22.146648 0.301799 15.103719 -22.821103 -0.850335 23.384438 -6.121443 5.937499 -37.812030 -13.093242 3.545501 -1.290788 -0.027603 0.165133 0.000000 0.000000 0.000000 3.550723 22.146648 0.301799 4.159919 4.314832 -2.056460 0.813765 2.798221 0.871273 0.000000 0.000000 0.000000 0.000000 0.000000 0.000000 0.822900 2.911490 0.866819 -4.434310 5.616285 -5.025563 -5.511905 1.377581 8.838563 0.000000 0.000000 0.000000 0.822900 2.911490 0.866819 0.049261 0.112955 -1.840621 0.000000 0.000000 0.000000 -70.965406 1.555730 -28.323618 3.446460 -75.023426 3.823187 0.000000 0.000000 0.000000 0.822900 2.911490 0.866819 4.069659 15.320695 6.024836 0.000000 0.000000 0.000000 12.145403 -7.778621 63.262523 16.010677 42.685359 -6.730057 0.000000 0.000000 0.000000 
-2.230132 31.467491 -0.895620 0.000000 0.000000 0.000000 4.245678 19.012265 -0.080714 -41.535606 -21.324520 4.330697 38.801967 16.804111 -10.516043 2.245604 -0.943371 -7.387155 -3.140451 -1.957279 -0.512778 0.000000 0.000000 0.000000 4.245678 19.012265 -0.080714 11.837352 -20.669011 -2.173623 24.953939 -5.486816 6.150460 -37.357764 -12.548954 3.192696 -1.288548 -0.027433 0.158494 0.000000 0.000000 0.000000 4.245678 19.012265 -0.080714 4.225052 4.088377 -2.050925 0.895982 2.686895 0.916956 0.000000 0.000000 0.000000 0.000000 0.000000 0.000000 0.902540 2.804692 0.916453 -5.834665 3.676894 -4.812161 -4.270058 -0.536819 9.458447 0.000000 0.000000 0.000000 0.902540 2.804692 0.916453 -0.033590 -0.456587 -1.544021 0.000000 0.000000 0.000000 -71.151324 1.754724 -30.563898 3.947386 -76.397401 4.010083 0.000000 0.000000 0.000000 0.902540 2.804692 0.916453 4.107285 15.021813 5.670993 0.000000 0.000000 0.000000 11.924079 -7.209769 63.117307 16.375245 43.773672 -6.874438 0.000000 0.000000 0.000000 
-2.196561 31.617325 -0.920172 0.000000 0.000000 0.000000 4.975810 15.588052 -0.444331 -40.406532 -21.040039 6.090564 40.386410 17.679043 -10.894778 0.056129 0.530808 -8.343622 -3.150127 -1.967624 -0.512887 0.000000 0.000000 0.000000 4.975810 15.588052 -0.444331 8.436860 -18.439325 -3.303174 26.375482 -4.719338 6.194039 -36.614605 -11.881100 2.802420 -1.288251 -0.027462 0.159695 0.000000 0.000000 0.000000 4.975810 15.588052 -0.444331 4.323535 3.825589 -2.065732 0.966079 2.550130 0.971379 0.000000 0.000000 0.000000 0.000000 0.000000 0.000000 0.969179 2.673406 0.972874 -7.688304 0.991034 -4.386642 -2.678515 -2.893380 9.949195 0.000000 0.000000 0.000000 0.969179 2.673406 0.972874 -0.015767 -0.910688 -1.244892 0.000000 0.000000 0.000000 -71.114031 1.752291 -32.948074 4.570687 -77.720996 4.244546 0.000000 0.000000 0.000000 0.969179 2.673406 0.972874 4.169834 14.682243 5.352218 0.000000 0.000000 0.000000 11.719940 -6.389694 62.862493 16.656634 44.636120 -6.992376 0.000000 0.000000 0.000000 
-2.152137 31.773354 -0.939739 0.000000 0.000000 0.000000 5.686643 11.816200 -0.773225 -39.025727 -20.522902 7.998121 42.048427 18.565139 -11.283631 -2.283116 2.138520 -9.397261 -3.158599 -1.976321 -0.512902 0.000000 0.000000 0.000000 5.686643 11.816200 -0.773225 4.969187 -16.129572 -4.226805 27.623134 -3.832399 6.055556 -35.502111 -11.164958 2.537081 -1.310448 -0.028627 0.207465 0.000000 0.000000 0.000000 5.686643 11.816200 -0.773225 4.393320 3.544544 -2.031933 1.078601 2.380405 0.982561 0.000000 0.000000 0.000000 0.000000 0.000000 0.000000 1.082128 2.506127 0.989467 -9.865806 -2.833461 -3.739663 -0.630943 -6.097438 10.088653 0.000000 0.000000 0.000000 1.082128 2.506127 0.989467 0.050820 -1.617024 -1.107837 0.000000 0.000000 0.000000 -70.898900 1.313842 -34.708832 5.127607 -78.615471 4.478137 0.000000 0.000000 0.000000 1.082128 2.506127 0.989467 4.204828 14.386287 5.064098 0.000000 0.000000 0.000000 11.404991 -5.538671 62.463446 16.901552 45.248586 -6.999901 0.000000 0.000000 0.000000 
-2.099145 31.922379 -0.951279 0.000000 0.000000 0.000000 6.345603 7.708954 -1.039035 -37.398455 -19.688611 10.025296 43.739203 19.394911 -11.662376 -4.725208 3.811816 -10.523868 -3.165689 -1.983687 -0.512792 0.000000 0.000000 0.000000 6.345603 7.708954 -1.039035 1.459344 -13.610526 -5.166279 28.723138 -2.755788 6.126839 -33.926031 -10.364641 2.543393 -1.423182 -0.035033 0.448643 0.000000 0.000000 0.000000 6.345603 7.708954 -1.039035 4.456470 3.231397 -1.983952 1.141648 2.172356 0.959689 0.000000 0.000000 0.000000 0.000000 0.000000 0.000000 1.147683 2.297733 0.970188 -11.708323 -7.727775 -2.808859 1.413963 -10.061137 9.810009 0.000000 0.000000 0.000000 1.147683 2.297733 0.970188 0.095528 -2.679216 -1.076276 0.000000 0.000000 0.000000 -70.594520 0.546608 -35.680765 5.305816 -78.635886 4.433985 0.000000 0.000000 0.000000 1.147683 2.297733 0.970188 4.210777 14.259145 4.752718 0.000000 0.000000 0.000000 11.010333 -4.890313 62.097990 17.027930 45.597479 -6.966703 0.000000 0.000000 0.000000 
-2.029221 32.056377 -0.956667 0.000000 0.000000 0.000000 6.932161 3.333125 -1.175711 -35.547979 -18.440908 12.044490 45.278045 20.132136 -11.991616 -7.150146 5.463511 -11.669729 -3.171244 -1.989188 -0.512514 0.000000 0.000000 0.000000 6.932161 3.333125 -1.175711 -2.116376 -11.175871 -5.929667 29.823539 -1.507565 5.984457 -32.201886 -9.497995 2.584755 -1.518075 -0.036443 0.660328 0.000000 0.000000 0.000000 6.932161 3.333125 -1.175711 4.504894 2.840179 -1.957408 1.273257 1.897094 0.915533 0.000000 0.000000 0.000000 0.000000 0.000000 0.000000 1.281595 2.022267 0.932667 -13.586798 -13.159499 -1.696809 3.592323 -14.154647 9.283065 0.000000 0.000000 0.000000 1.281595 2.022267 0.932667 0.108090 -3.452481 -1.234952 0.000000 0.000000 0.000000 -70.751546 -0.500430 -36.415143 4.970507 -77.434565 3.839931 0.000000 0.000000 0.000000 1.281595 2.022267 0.932667 4.296895 14.099431 4.422436 0.000000 0.000000 0.000000 10.149531 -4.186258 61.594742 17.063329 45.580564 -6.796706 0.000000 0.000000 0.000000 
-1.938344 32.159031 -0.958384 0.000000 0.000000 0.000000 7.445005 -1.275278 -1.121773 -33.589139 -16.403266 14.054160 46.506919 20.535981 -12.246275 -9.518529 6.841973 -12.644803 -3.173588 -1.992669 -0.511972 0.000000 0.000000 0.000000 7.445005 -1.275278 -1.121773 -5.871489 -8.817406 -6.677707 31.136797 0.027586 5.719110 -30.395896 -8.558617 2.817009 -1.648713 -0.041173 0.832996 0.000000 0.000000 0.000000 7.445005 -1.275278 -1.121773 4.626620 2.579467 -1.890857 1.330223 1.684721 0.813366 0.000000 0.000000 0.000000 0.000000 0.000000 0.000000 1.344291 1.802799 0.832766 -14.786422 -18.367748 -0.665414 5.478162 -18.309982 8.894984 0.000000 0.000000 0.000000 1.344291 1.802799 0.832766 0.283246 -4.630734 -1.243704 0.000000 0.000000 0.000000 -70.924240 -1.062803 -37.183229 4.802601 -76.558272 3.436759 0.000000 0.000000 0.000000 1.344291 1.802799 0.832766 4.306506 13.445880 4.225297 0.000000 0.000000 0.000000 9.240547 -3.406239 61.095223 16.967138 45.260406 -6.567512 0.000000 0.000000 0.000000 
-1.825764 32.236732 -0.950500 0.000000 0.000000 0.000000 7.926416 -6.160852 -0.885421 -31.504866 -13.742403 15.955587 47.408855 20.777967 -12.416560 -11.840904 8.057351 -13.523576 -3.174466 -1.994746 -0.511248 0.000000 0.000000 0.000000 7.926416 -6.160852 -0.885421 -9.750568 -6.481204 -7.365509 32.476764 1.731813 5.413309 -28.438860 -7.518949 3.113328 -1.981074 -0.034981 0.526579 0.000000 0.000000 0.000000 7.926416 -6.160852 -0.885421 4.692489 2.277382 -1.828288 1.392134 1.444304 0.782925 0.000000 0.000000 0.000000 0.000000 0.000000 0.000000 1.407959 1.560125 0.805362 -15.295905 -22.809946 0.144341 6.891253 -21.828246 8.711374 0.000000 0.000000 0.000000 1.407959 1.560125 0.805362 0.227996 -5.664257 -1.065705 0.000000 0.000000 0.000000 -70.466269 -0.980081 -37.997480 4.796708 -76.225731 3.334118 0.000000 0.000000 0.000000 1.407959 1.560125 0.805362 4.358094 13.059866 4.059142 0.000000 0.000000 0.000000 8.293870 -2.926377 60.522245 16.864830 44.881904 -6.368389 0.000000 0.000000 0.000000 
